<?xml version="1.0" encoding="utf-8"?>
<!-- Generator: Adobe Illustrator 17.0.0, SVG Export Plug-In . SVG Version: 6.00 Build 0)  -->
<!DOCTYPE svg PUBLIC "-//W3C//DTD SVG 1.1//EN" "http://www.w3.org/Graphics/SVG/1.1/DTD/svg11.dtd">
<svg version="1.1" id="Layer_1" xmlns="http://www.w3.org/2000/svg" xmlns:xlink="http://www.w3.org/1999/xlink" x="0px" y="0px"
	 width="50px" height="50px" viewBox="0 0 50 50" enable-background="new 0 0 50 50" xml:space="preserve">
<path fill="#FFFFFF" d="M28.371,25L49.302,4.069c0.931-0.931,0.931-2.44,0-3.371c-0.931-0.931-2.44-0.931-3.371,0L25,21.629
	L4.069,0.698c-0.931-0.931-2.44-0.931-3.371,0c-0.931,0.931-0.931,2.44,0,3.371L21.629,25L0.698,45.931
	c-0.931,0.931-0.931,2.44,0,3.371C1.164,49.767,1.774,50,2.384,50s1.22-0.233,1.685-0.698L25,28.371l20.931,20.931
	C46.396,49.767,47.006,50,47.616,50s1.22-0.233,1.685-0.698c0.931-0.931,0.931-2.44,0-3.371L28.371,25z"/>
</svg>
