<svg xmlns="http://www.w3.org/2000/svg" xmlns:xlink="http://www.w3.org/1999/xlink" version="1.1" id="Layer_1" x="0" y="0" width="48.83" height="46.85" viewBox="0 0 48.83 46.85" enable-background="new 0 0 48.833 46.848" xml:space="preserve">
  <linearGradient id="SVGID_1_" gradientUnits="userSpaceOnUse" x1="1.16" y1="23.42" x2="48.01" y2="23.42">
    <stop offset="0" stop-color="#EDF2F4"/>
    <stop offset="1" stop-color="#8D99AE"/>
  </linearGradient>
  <circle fill="url(#SVGID_1_)" cx="24.59" cy="23.42" r="23.42"/>
  <circle fill="#2B2D42" cx="24.59" cy="23.42" r="20.83"/>
  <g id="XMLID_1_">
    <path fill="#8D99AE" d="M36.24 12.56v0.48c0 0.38-0.06 0.8-0.18 1.26 -0.12 0.45-0.32 0.81-0.62 1.07L30.55 20.04c-0.06 0.04-0.1 0.11-0.1 0.19 -0.01 0.09-0.01 0.15-0.01 0.19v17.68c0 0.05-0.01 0.15-0.04 0.33 -0.02 0.17-0.03 0.28-0.03 0.33s-0.01 0.08-0.04 0.13c-0.04 0.06-0.07 0.09-0.11 0.11l-0.95 0.98c-0.14 0.1-0.25 0.14-0.32 0.14 -0.2 0-0.34-0.1-0.42-0.32L24.24 26.77c-0.03-0.1-0.07-0.19-0.15-0.27 -0.08-0.08-0.17-0.12-0.27-0.12h-0.04c-0.04 0.05-0.1 0.06-0.17 0.06l-4.2 3.94 -0.12 5.59 -1.29 1.29c-0.04 0.04-0.11 0.06-0.23 0.06 -0.15 0-0.27-0.05-0.34-0.14 -0.07-0.1-0.12-0.21-0.17-0.33l-0.77-3.09c-0.02-0.1-0.07-0.17-0.14-0.21 -0.08-0.04-0.15-0.06-0.21-0.06 -0.2 0-0.37 0.08-0.48 0.22 -0.12 0.15-0.23 0.28-0.32 0.37 -0.34 0.28-0.76 0.42-1.26 0.42 -0.18 0-0.32-0.04-0.44-0.1l22.33-22.33C36.09 12.18 36.17 12.35 36.24 12.56z"/>
    <path fill="#EDF2F4" d="M35.97 12.05L13.65 34.37c-0.16-0.1-0.24-0.28-0.24-0.55 0-0.22 0.04-0.44 0.1-0.66s0.17-0.41 0.31-0.57l0.51-0.56c0-0.02 0.01-0.04 0.03-0.06 0.02-0.02 0.03-0.04 0.03-0.06 0.06-0.06 0.09-0.12 0.09-0.18 0-0.08-0.04-0.15-0.12-0.22 -0.08-0.07-0.16-0.11-0.23-0.13l-3.19-0.78c-0.21-0.08-0.32-0.24-0.32-0.5v-0.03c0-0.02 0.01-0.07 0.03-0.15l1.22-1.22c0.04-0.02 0.1-0.05 0.16-0.09 0.07-0.04 0.12-0.06 0.14-0.06h5.18c0.02 0 0.06-0.01 0.13-0.04 0.07-0.03 0.12-0.06 0.14-0.1l3.84-4.11c0.04-0.04 0.06-0.11 0.06-0.21 0-0.19-0.08-0.33-0.24-0.41L8.02 19.35c-0.1-0.01-0.15-0.07-0.17-0.16 -0.01-0.09-0.01-0.17-0.01-0.23v-0.14c0-0.05 0.02-0.1 0.06-0.14l1.04-1.01c0.02-0.04 0.06-0.08 0.13-0.12s0.12-0.06 0.17-0.06h18.52l4.52-4.79c0.32-0.34 0.72-0.59 1.21-0.77 0.48-0.18 0.95-0.27 1.41-0.27 0.3 0 0.57 0.07 0.82 0.19C35.81 11.89 35.9 11.96 35.97 12.05z"/>
  </g>
</svg>
