<?xml version="1.0" encoding="utf-8"?>
<!-- Generator: Adobe Illustrator 17.0.0, SVG Export Plug-In . SVG Version: 6.00 Build 0)  -->
<!DOCTYPE svg PUBLIC "-//W3C//DTD SVG 1.1//EN" "http://www.w3.org/Graphics/SVG/1.1/DTD/svg11.dtd">
<svg version="1.1" id="Layer_1" xmlns="http://www.w3.org/2000/svg" xmlns:xlink="http://www.w3.org/1999/xlink" x="0px" y="0px"
	 width="3743.251px" height="1127.774px" viewBox="-552.74 1056.942 3743.251 1127.774"
	 enable-background="new -552.74 1056.942 3743.251 1127.774" xml:space="preserve">
<path fill="#EEF2F4" d="M2260.666,1680.153c-3.79,2.871-7.446,5.565-11.172,8.273c-3.705,2.701-7.418,5.367-11.137,8.012
	c-7.439,5.289-14.913,10.486-22.416,15.627c-15.019,10.281-30.172,20.301-45.453,30.123c-30.568,19.636-61.638,38.445-93.183,56.427
	c-63.095,35.956-128.085,68.703-195.02,97.269c-66.921,28.525-135.849,52.892-206.687,70.965
	c-35.412,9.023-71.305,16.433-107.579,21.835c-36.267,5.395-72.931,8.768-109.75,9.595c-9.207,0.212-18.413,0.255-27.641,0.134
	l-6.908-0.12l-3.451-0.085l-1.732-0.049l-0.431-0.007c-0.304-0.007,1.082,0.007,0.297,0l-0.841,0.007
	c-4.625,0.028-9.199,0.021-13.796-0.021c-18.349-0.177-36.593-0.87-54.801-1.909c-36.402-2.107-72.641-5.65-108.732-10.444
	c-36.077-4.808-72.005-10.911-107.671-18.491c-35.659-7.601-71.071-16.681-105.981-27.747c-17.451-5.53-34.776-11.568-51.909-18.222
	l-12.685-5.006l-12.622-5.07c-8.408-3.415-16.801-6.887-25.18-10.458c-16.751-7.135-33.425-14.616-49.922-22.698
	c-16.483-8.096-32.803-16.794-48.706-26.474c-15.889-9.68-31.388-20.358-45.983-32.477c-14.581-12.106-28.256-25.71-40.114-40.991
	c-11.872-15.252-21.85-32.202-29.253-50.169c-7.439-17.96-12.311-36.862-14.963-55.833l-0.035-0.261
	c-0.057-0.453-0.099-0.919-0.113-1.358l-0.028-1.018l-0.014-0.863l0-1.655c0-1.089,0.021-2.157,0.042-3.224
	c0.05-2.128,0.134-4.236,0.247-6.328c0.233-4.193,0.566-8.358,1.018-12.502c0.898-8.294,2.22-16.546,4.016-24.749
	c3.592-16.377,9.023-32.626,17.246-47.949c4.108-7.644,8.931-15.026,14.545-21.899c5.607-6.866,12.021-13.209,19.134-18.724
	c7.099-5.516,14.892-10.182,23.059-13.852c8.16-3.677,16.681-6.371,25.265-8.181c4.292-0.898,8.598-1.598,12.905-2.1
	c2.157-0.248,4.299-0.453,6.449-0.608c1.075-0.085,2.15-0.141,3.217-0.205l1.605-0.078l1.11-0.035l0.728-0.007
	c8.528-0.127,17.027,0.311,25.59,1.478c8.542,1.16,17.084,3.069,25.413,5.841c8.33,2.772,16.447,6.421,24.07,10.946
	c7.63,4.518,14.75,9.9,21.164,15.945c6.428,6.046,12.155,12.735,17.161,19.834c10.027,14.213,17.169,29.911,22.154,45.955
	c2.489,8.033,4.448,16.186,5.918,24.402c0.735,4.115,1.351,8.238,1.839,12.389l0.339,3.111l0.304,3.005
	c0.205,2.171,0.361,4.349,0.46,6.527c0.799,17.43-1.93,34.67-6.979,50.806c-5.063,16.179-12.403,31.325-21.114,45.382
	c-8.733,14.064-18.866,27.068-29.925,39.089c-22.154,24.02-47.935,44.173-75.689,60.698c-27.789,16.504-57.665,29.352-88.699,38.184
	c-31.035,8.832-63.272,13.591-95.601,13.718c-32.322,0.149-64.7-4.398-95.679-13.668c-30.985-9.221-60.493-23.144-87.441-40.715
	c-6.739-4.391-13.329-9.001-19.757-13.831c-3.21-2.404-6.385-4.872-9.518-7.382c-1.563-1.252-3.125-2.517-4.674-3.797l-2.312-1.93
	l-1.152-0.969l-0.573-0.488l-0.283-0.24c-0.198-0.17,0.714,0.573,0.191,0.163l-1.343-1.047l-1.237-0.997l-2.397-1.987
	c-1.584-1.329-3.125-2.673-4.653-4.045c-3.055-2.729-6.01-5.529-8.91-8.4c-5.784-5.742-11.285-11.752-16.468-18.052
	c-10.366-12.601-19.523-26.368-26.623-41.387c-7.078-14.984-12.014-31.318-13.484-48.203c-0.75-8.429-0.622-16.956,0.382-25.371
	c1.004-8.415,2.892-16.709,5.551-24.685c1.329-3.988,2.836-7.913,4.518-11.745l0.636-1.428l0.163-0.361
	c0.523-1.075,0.248-0.488,0.403-0.813l0.339-0.651c0.502-0.94,1.004-1.867,1.506-2.779c1.018-1.824,2.072-3.627,3.175-5.409
	c4.391-7.12,9.461-13.902,15.224-20.103c5.763-6.201,12.226-11.816,19.276-16.603c7.043-4.794,14.673-8.761,22.649-11.759
	c15.967-6.025,33.269-8.111,50.07-6.442c16.822,1.662,33.234,6.972,47.779,15.733c7.255,4.384,14.043,9.645,20.039,15.783
	c5.996,6.124,11.208,13.145,15.21,20.867l-0.453-0.764c4.575,6.937,8.004,14.496,10.395,22.26c2.397,7.771,3.776,15.754,4.32,23.738
	c1.075,15.967-1.131,31.876-5.742,46.895c-4.624,15.033-11.703,29.225-20.683,42.009c-8.98,12.798-19.884,24.183-32.117,33.786
	c-12.233,9.617-25.774,17.458-40.001,23.483c-14.227,6.039-29.119,10.281-44.208,12.982c-15.09,2.701-30.377,3.861-45.587,3.825
	c-15.217-0.042-30.377-1.287-45.347-3.458c-7.488-1.082-14.927-2.397-22.323-3.924c-3.698-0.757-7.382-1.57-11.052-2.425
	l-0.346-0.078l-0.17-0.042l-0.488-0.12l-0.7-0.205l-1.372-0.41l-2.715-0.834l-5.381-1.704c-14.298-4.639-28.362-9.793-42.278-15.394
	c-13.902-5.614-27.627-11.674-41.104-18.307c-13.478-6.619-26.707-13.782-39.548-21.673c-12.827-7.891-25.279-16.511-36.989-26.156
	c-11.696-9.645-22.691-20.344-32.096-32.506c-4.695-6.081-8.973-12.537-12.629-19.389c-3.656-6.838-6.668-14.078-8.818-21.602
	s-3.408-15.33-3.67-23.172c-0.269-7.849,0.467-15.698,2.058-23.327l0.007-0.05c0.021-0.106,0.049-0.205,0.078-0.304
	c3.168-10.903,8.287-21.255,15.408-30.229c3.557-4.476,7.623-8.584,12.155-12.141c4.525-3.564,9.518-6.562,14.814-8.86
	c5.289-2.305,10.875-3.903,16.532-4.808c5.664-0.912,11.377-1.138,17.027-0.82c5.65,0.318,11.208,1.181,16.688,2.432
	c5.53,1.287,10.96,3.182,16.087,5.749s9.949,5.82,14.213,9.702c4.271,3.875,7.976,8.358,10.988,13.251
	c6.046,9.793,9.27,21.065,10.048,32.308c0.785,11.278-0.785,22.578-4.221,33.227c-1.711,5.332-3.924,10.472-6.47,15.408
	c-2.567,4.943-5.53,9.687-8.888,14.149c-6.718,8.924-15.09,16.617-24.551,22.514c-9.461,5.925-19.905,10.076-30.632,12.685
	c-10.741,2.609-21.744,3.726-32.675,3.797c-10.946,0.071-21.836-0.905-32.583-2.588c-21.503-3.387-42.398-9.518-62.65-17.055
	c-5.07-1.888-10.09-3.868-15.09-5.94s-9.928-4.186-14.878-6.321c-9.885-4.271-19.728-8.627-29.529-13.053
	c-39.223-17.741-77.902-36.593-116.347-55.89c-38.438-19.304-76.622-39.103-114.693-59.1
	c-76.134-40.029-151.816-80.865-227.462-121.778c75.986,40.277,152.028,80.469,228.473,119.848
	c38.233,19.679,76.573,39.138,115.145,58.11c38.573,18.957,77.386,37.463,116.673,54.829c9.829,4.342,19.679,8.605,29.571,12.784
	c4.943,2.072,9.907,4.165,14.863,6.152c4.964,1.994,9.956,3.903,14.984,5.72c20.103,7.234,40.751,13.032,61.787,16.122
	c10.508,1.527,21.107,2.355,31.671,2.171c10.557-0.177,21.072-1.372,31.219-3.953c10.126-2.574,19.87-6.576,28.588-12.169
	c8.719-5.579,16.37-12.749,22.493-21.079c3.069-4.158,5.77-8.598,8.111-13.216c2.333-4.639,4.335-9.426,5.848-14.347
	c3.055-9.843,4.37-20.237,3.543-30.413c-0.813-10.161-3.825-20.131-9.185-28.603c-2.673-4.229-5.926-8.075-9.652-11.391
	c-3.726-3.316-7.927-6.088-12.431-8.287c-4.511-2.192-9.313-3.825-14.262-4.914c-5.02-1.089-10.133-1.817-15.217-2.051
	c-10.168-0.481-20.329,1.124-29.423,5.225c-9.108,4.059-17.034,10.557-23.193,18.512c-6.173,7.955-10.67,17.275-13.386,27.033
	l0.085-0.354c-1.379,6.923-1.959,13.965-1.655,20.973c0.297,7,1.485,13.958,3.479,20.69c3.981,13.499,11.158,26.036,20.018,37.286
	c8.874,11.264,19.396,21.333,30.688,30.462c11.314,9.136,23.419,17.352,35.956,24.911c12.544,7.552,25.527,14.425,38.764,20.775
	c13.251,6.35,26.764,12.169,40.461,17.551c13.697,5.367,27.584,10.302,41.578,14.694l5.247,1.612l2.623,0.771l1.301,0.382
	l0.644,0.177c0.12,0.035-0.488-0.12-0.149-0.035l0.163,0.035l0.332,0.078c3.571,0.799,7.149,1.549,10.734,2.249
	c7.17,1.4,14.368,2.602,21.595,3.578c14.439,1.952,28.984,2.991,43.473,2.899c14.482-0.099,28.928-1.35,43.056-4.023
	c14.121-2.666,27.931-6.76,41.005-12.466c13.067-5.685,25.378-12.99,36.416-21.85c11.038-8.846,20.789-19.248,28.765-30.844
	c7.976-11.597,14.185-24.381,18.159-37.788c3.974-13.393,5.742-27.422,4.667-41.111c-0.537-6.831-1.782-13.562-3.826-19.976
	c-2.043-6.399-4.893-12.474-8.556-17.904c-0.148-0.219-0.29-0.446-0.41-0.679l-0.042-0.085
	c-6.484-12.24-16.985-22.415-29.239-29.635c-12.283-7.248-26.333-11.639-40.588-12.898c-14.255-1.273-28.744,0.658-41.953,5.791
	c-13.23,5.112-25.095,13.442-34.698,24.02c-4.815,5.282-9.093,11.102-12.827,17.296c-0.933,1.556-1.839,3.125-2.701,4.723
	c-0.438,0.806-0.856,1.591-1.259,2.376l-0.332,0.658c0.05-0.106-0.346,0.7,0.071-0.156l-0.134,0.318l-0.537,1.245
	c-1.421,3.331-2.687,6.717-3.79,10.14c-4.419,13.697-6.039,28.1-4.61,42.327c1.379,14.234,5.706,28.235,12.077,41.38
	c6.378,13.166,14.736,25.526,24.31,36.925c4.787,5.706,9.885,11.172,15.231,16.377c2.673,2.602,5.409,5.141,8.202,7.58
	c1.393,1.223,2.807,2.425,4.221,3.599l2.121,1.725l1.054,0.827l0.969,0.743l4.886,3.995c1.478,1.195,2.956,2.376,4.448,3.543
	c2.984,2.348,5.996,4.639,9.058,6.88c6.102,4.49,12.353,8.775,18.724,12.841c25.498,16.278,53.182,28.984,82.123,37.293
	c28.935,8.344,59.093,12.282,89.201,11.844c30.116-0.417,60.168-5.155,89.102-13.682c28.928-8.535,56.766-20.845,82.512-36.479
	c25.71-15.641,49.427-34.62,69.402-56.717c9.97-11.045,18.979-22.882,26.594-35.419c7.609-12.53,13.81-25.788,17.939-39.464
	c4.129-13.661,6.138-27.761,5.367-41.542c-0.092-1.718-0.233-3.444-0.41-5.148l-0.318-2.807l-0.325-2.701
	c-0.46-3.599-1.032-7.184-1.704-10.755c-1.351-7.135-3.111-14.17-5.31-21.022c-4.398-13.69-10.55-26.672-18.654-37.915
	c-8.082-11.25-18.166-20.655-29.847-27.4c-11.674-6.781-24.897-10.896-38.764-12.629c-6.916-0.877-14.05-1.181-21.128-1.004
	l-0.728,0.021c0.028,0-0.587,0.021-0.021,0.007l-0.332,0.021l-1.315,0.071c-0.877,0.057-1.747,0.12-2.623,0.191
	c-1.747,0.148-3.479,0.325-5.197,0.545c-3.444,0.431-6.838,1.025-10.175,1.761c-6.675,1.485-13.103,3.599-19.141,6.399
	c-6.046,2.793-11.703,6.272-16.886,10.38c-10.387,8.209-18.823,19.007-25.251,31.275c-6.442,12.282-10.939,25.944-13.873,40.065
	c-1.464,7.064-2.553,14.262-3.26,21.489c-0.354,3.606-0.615,7.234-0.771,10.84c-0.078,1.803-0.134,3.599-0.148,5.367l-0.014,2.63
	l0.014,1.273l0.028,1.047l-0.148-1.619c2.439,16.624,6.76,32.796,13.188,48.034c6.406,15.245,14.927,29.522,25.229,42.582
	c10.288,13.074,22.323,24.94,35.476,35.702c13.152,10.776,27.414,20.485,42.292,29.408c14.877,8.924,30.391,17.07,46.238,24.713
	c15.846,7.644,32.053,14.786,48.43,21.63c8.195,3.429,16.433,6.774,24.72,10.069l12.445,4.907l12.431,4.808
	c16.44,6.244,33.142,11.943,50,17.161c33.736,10.444,68.144,19.028,102.884,26.177c34.747,7.142,69.834,12.855,105.083,17.303
	c35.249,4.448,70.675,7.658,106.094,9.461c17.706,0.891,35.412,1.443,53.04,1.492c4.398,0.014,8.811-0.014,13.181-0.071
	l13.888,0.212c8.768,0.085,17.543,0.007,26.311-0.219c35.094-0.912,70.202-4.257,105.055-9.567
	c34.86-5.318,69.48-12.587,103.74-21.447c68.526-17.741,135.574-41.684,200.868-69.784c65.301-28.136,128.884-60.451,190.65-95.94
	c30.879-17.755,61.306-36.317,91.189-55.663c14.941-9.68,29.748-19.552,44.378-29.642c7.312-5.049,14.58-10.14,21.779-15.302
	c3.599-2.581,7.184-5.176,10.734-7.778c3.542-2.595,7.114-5.247,10.479-7.821l0.007-0.007c8.839-6.76,21.489-5.07,28.249,3.769
	c6.76,8.839,5.07,21.489-3.769,28.249L2260.666,1680.153z"/>
<path fill="#FFFFFF" d="M2576.375,1590.025l47.015,557.674l29.211-13.668l65.485-627.918c0,0,269.167-145.013,329.929-189.71
	c21.694-18.851,110.471-94.363,84.308-147.213c-0.099-0.198-0.219-0.389-0.318-0.587c-0.12-0.191-0.226-0.382-0.346-0.573
	c-32.343-49.3-142.397-10.96-169.635-1.796c-69.311,29.783-330.615,188.529-330.615,188.529l-574.694-261.332l-26.566,18.279
	l457.173,322.809c0,0-125.943,85.779-189.229,132.151c-63.286,46.372-205.315,161.206-205.315,161.206l-186.959-63.71l-2.418,12.558
	l143.465,113.286l29.076,157.826l12.049,4.271l35.688-170.25c0,0,170.922-64.375,242.948-95.488
	C2438.652,1655.228,2576.375,1590.025,2576.375,1590.025z"/>
</svg>
