<?xml version="1.0" encoding="utf-8"?>
<!-- Generator: Adobe Illustrator 17.0.0, SVG Export Plug-In . SVG Version: 6.00 Build 0)  -->
<!DOCTYPE svg PUBLIC "-//W3C//DTD SVG 1.1//EN" "http://www.w3.org/Graphics/SVG/1.1/DTD/svg11.dtd">
<svg version="1.1" id="Layer_1" xmlns="http://www.w3.org/2000/svg" xmlns:xlink="http://www.w3.org/1999/xlink" x="0px" y="0px"
	 width="54.167px" height="54.5px" viewBox="0 0 54.167 54.5" enable-background="new 0 0 54.167 54.5" xml:space="preserve">
<g>
	<circle fill="#EDF2F4" cx="27.138" cy="27.443" r="26.249"/>
	<g>
		<path fill="#2B2D42" d="M37.616,22.07c0.017,0.234,0.017,0.469,0.017,0.703c0,7.147-5.44,15.383-15.383,15.383
			c-3.063,0-5.909-0.888-8.303-2.428c0.436,0.051,0.854,0.067,1.306,0.067c2.527,0,4.854-0.854,6.713-2.31
			c-2.377-0.051-4.369-1.607-5.056-3.75c0.335,0.05,0.67,0.084,1.021,0.084c0.485,0,0.971-0.067,1.423-0.185
			c-2.478-0.502-4.336-2.678-4.336-5.306c0-0.018,0-0.051,0-0.067c0.72,0.401,1.557,0.653,2.444,0.687
			c-1.457-0.971-2.411-2.628-2.411-4.503c0-1.004,0.269-1.925,0.737-2.729c2.661,3.281,6.662,5.424,11.147,5.658
			c-0.083-0.402-0.134-0.82-0.134-1.239c0-2.979,2.41-5.406,5.407-5.406c1.557,0,2.962,0.652,3.95,1.707
			c1.222-0.234,2.394-0.687,3.432-1.306c-0.402,1.256-1.256,2.311-2.377,2.979c1.088-0.117,2.143-0.418,3.113-0.837
			C39.592,20.345,38.671,21.299,37.616,22.07z"/>
	</g>
</g>
</svg>
